# xmcd
#
# Track frame offsets: 
#        150
#        21478
#        40880
#        62722
#        86107
#        106796
#        122815
#        146603
#        168031
#        187504
#        207385
#        233377
#        252142
#        273127
#        292915
#        320459
#
# Disc length: 4559 seconds
#
# Revision: 2
# Processed by: cddbd v1.5.2PL0 Copyright (c) Steve Scherf et al.
# Submitted via: ExactAudioCopy v1.0b3
#
DISCID=d111cd10
DTITLE=茶太 - 茶太 Works Best II
DYEAR=2010
DGENRE=Vocal
TTITLE0=なないろの世界
TTITLE1=あさきゆめみし
TTITLE2=always
TTITLE3=宙のヒカリ
TTITLE4=忘れない...
TTITLE5=恋をしよーよ(茶太バージョン)
TTITLE6=たそがれ空
TTITLE7=夢から覚めても
TTITLE8=cotton candy
TTITLE9=桜が舞う空の下で
TTITLE10=星空のメモリア
TTITLE11=虹色アドレセンス
TTITLE12=夢笑顔
TTITLE13=with you
TTITLE14=水平線まで何マイル？
TTITLE15=Harmony
EXTD=
EXTT0=
EXTT1=
EXTT2=
EXTT3=
EXTT4=
EXTT5=
EXTT6=
EXTT7=
EXTT8=
EXTT9=
EXTT10=
EXTT11=
EXTT12=
EXTT13=
EXTT14=
EXTT15=
PLAYORDER=
